<svg xmlns="http://www.w3.org/2000/svg" viewBox="0 -0.5 60 60" shape-rendering="crispEdges">
<metadata>Made with Pixels to Svg https://codepen.io/shshaw/pen/XbxvNj</metadata>
<path stroke="rgba(46,93,0,0.043137254901960784)" d="M18 0h1M41 0h1M48 56h1" />
<path stroke="rgba(55,86,10,0.596078431372549)" d="M18 1h1M41 1h1" />
<path stroke="rgba(55,87,9,0.5411764705882353)" d="M19 1h1M40 1h1" />
<path stroke="rgba(55,91,18,0.054901960784313725)" d="M20 1h1M39 1h1M24 3h1M13 15h1M39 57h1" />
<path stroke="rgba(66,102,10,0.19607843137254902)" d="M45 1h2" />
<path stroke="rgba(68,102,13,0.23529411764705882)" d="M16 2h1" />
<path stroke="rgba(64,128,0,0.01568627450980392)" d="M17 2h1M21 4h1M13 13h1M21 54h1M25 55h1" />
<path stroke="rgba(55,86,11,0.6666666666666666)" d="M18 2h1M41 2h1M18 13h1M46 36h1M46 37h1M46 52h1M46 53h1" />
<path stroke="#38560a" d="M19 2h1M40 2h1M19 3h1M40 3h1M42 4h2M24 5h1M42 5h2M42 6h2M41 7h3M39 8h3M45 8h1M38 9h2M44 9h2M24 10h1M24 11h1M19 13h1M40 13h1M16 15h1M42 16h1M14 17h2M38 17h1M42 17h2M15 18h1M33 18h1M37 18h4M42 18h2M40 19h4M42 20h2M21 23h1M33 23h1M44 23h1M21 24h1M24 24h1M33 24h1M44 24h2M24 25h1M24 26h1M38 26h1M18 27h2M24 27h1M38 27h1M16 28h3M24 28h1M38 28h1M16 29h2M38 29h1M14 32h2M14 33h1M47 33h1M47 34h1M44 35h2M47 35h1M19 36h1M47 36h1M19 37h1M19 38h1M19 39h1M42 39h1M42 40h2M35 42h1M34 43h2M35 44h1M17 45h1M35 45h1M16 46h2M21 46h1M21 47h1M40 47h1M15 49h1M44 49h2M14 50h1M35 50h2M45 50h3M35 51h3M46 51h2M38 52h1M47 52h1M38 53h1M47 53h1M38 54h1M47 54h1M38 55h1" />
<path stroke="rgba(56,86,10,0.5843137254901961)" d="M20 2h1M20 3h1" />
<path stroke="rgba(82,112,20,0.09803921568627451)" d="M37 2h1M33 4h1" />
<path stroke="rgba(77,113,20,0.611764705882353)" d="M38 2h1" />
<path stroke="rgba(65,97,14,0.9725490196078431)" d="M39 2h1" />
<path stroke="rgba(64,64,0,0.01568627450980392)" d="M42 2h1M13 48h1M38 57h1M42 59h1" />
<path stroke="rgba(55,85,8,0.23529411764705882)" d="M43 2h1" />
<path stroke="rgba(68,103,12,0.807843137254902)" d="M44 2h1M19 57h1" />
<path stroke="#44670c" d="M45 2h1M44 3h2M16 4h2M17 5h1M14 6h2M26 12h1M26 13h1M26 14h1M26 15h1M43 15h1M17 16h1M16 17h2M44 17h1M44 18h2M12 19h1M35 19h2M45 19h1M15 20h1M36 20h3M14 21h2M38 21h1M40 24h1M40 25h1M42 28h2M14 29h2M42 29h2M24 30h1M35 30h1M24 31h1M35 31h1M24 32h1M24 33h1M24 34h1M33 35h1M40 35h1M12 36h1M40 36h1M12 37h1M15 40h1M15 41h1M15 43h1M44 43h1M14 44h2M19 44h1M44 44h2M19 45h1M44 45h2M19 46h1M44 46h2M19 47h1M44 47h2M16 51h2M16 52h1M14 55h2M19 55h1M19 56h1" />
<path stroke="rgba(69,102,12,0.3333333333333333)" d="M46 2h1M13 5h1M13 6h1M46 18h1M46 19h1M13 44h1M13 45h1M13 55h1M13 56h1" />
<path stroke="rgba(102,102,0,0.0196078431372549)" d="M48 2h1" />
<path stroke="rgba(68,103,12,0.984313725490196)" d="M16 3h1" />
<path stroke="rgba(68,103,12,0.7647058823529411)" d="M17 3h1" />
<path stroke="rgba(61,91,12,0.7764705882352941)" d="M18 3h1" />
<path stroke="rgba(57,85,14,0.07058823529411765)" d="M22 3h1" />
<path stroke="rgba(57,86,11,0.4745098039215686)" d="M23 3h1" />
<path stroke="rgba(91,128,36,0.054901960784313725)" d="M35 3h1" />
<path stroke="rgba(89,124,33,0.5411764705882353)" d="M36 3h1" />
<path stroke="rgba(77,114,20,0.9294117647058824)" d="M37 3h1M13 26h1" />
<path stroke="#4d7113" d="M38 3h1M38 4h1M47 4h1M19 5h1M40 5h1M47 5h1M20 6h3M21 7h4M21 8h4M16 9h1M21 9h1M33 9h1M43 9h1M16 10h2M21 10h1M33 10h1M41 10h3M47 10h1M14 11h1M21 11h1M41 11h1M47 11h1M15 12h1M21 12h1M38 12h1M22 13h3M21 14h3M19 15h4M33 15h1M40 15h1M19 16h3M40 16h1M21 17h1M21 18h1M21 19h1M21 20h1M33 20h1M21 21h1M33 21h3M40 21h1M17 22h1M24 22h1M34 22h2M40 22h3M47 22h1M16 23h2M42 23h2M12 24h1M19 24h1M12 25h1M19 25h1M14 26h3M14 27h2M35 27h1M35 28h1M47 28h1M21 29h1M40 30h2M47 30h1M40 31h2M47 31h1M40 32h1M44 32h2M19 33h1M40 33h1M45 33h1M21 37h1M38 37h1M14 38h2M21 38h1M38 38h3M43 38h1M14 39h1M17 39h1M21 39h1M38 39h3M16 40h2M21 40h1M38 40h1M16 41h2M21 41h1M38 41h1M12 42h1M16 42h6M42 42h1M16 43h2M21 43h1M26 43h1M42 43h2M26 44h1M40 44h1M26 45h1M40 45h1M26 46h1M26 47h1M16 48h2M47 48h1M16 49h2M21 49h1M38 49h1M21 50h1M21 51h1M42 51h2M14 52h2M20 52h2M43 52h1M14 53h2M19 53h2M24 53h1" />
<path stroke="#41620e" d="M39 3h1M20 12h1M39 12h1M39 13h1M20 38h1M20 39h1M18 40h1M17 44h1" />
<path stroke="rgba(58,89,12,0.7764705882352941)" d="M41 3h1" />
<path stroke="rgba(56,86,10,0.7647058823529411)" d="M42 3h1M38 56h1" />
<path stroke="rgba(56,86,10,0.984313725490196)" d="M43 3h1M14 49h1" />
<path stroke="rgba(69,103,11,0.34901960784313724)" d="M46 3h1M14 4h1M14 57h1" />
<path stroke="rgba(76,114,21,0.2901960784313726)" d="M47 3h1M13 12h1" />
<path stroke="rgba(77,113,19,0.6745098039215687)" d="M48 3h1" />
<path stroke="rgba(68,104,12,0.25098039215686274)" d="M13 4h1M13 57h1" />
<path stroke="rgba(70,93,23,0.043137254901960784)" d="M15 4h1M15 57h1" />
<path stroke="#4a6e11" d="M18 4h1M18 5h1M18 16h1M18 17h1M36 21h1M46 28h1M46 47h1" />
<path stroke="#496c11" d="M19 4h1M40 4h1M23 6h1M24 12h1M20 14h1M34 20h1M15 51h1" />
<path stroke="rgba(64,95,13,0.6392156862745098)" d="M20 4h1" />
<path stroke="rgba(61,85,12,0.08235294117647059)" d="M22 4h1M47 38h1M28 54h1M36 54h1M36 55h1" />
<path stroke="rgba(56,86,10,0.9176470588235294)" d="M23 4h1M23 5h1M37 54h1M37 55h1" />
<path stroke="rgba(56,86,10,0.9725490196078431)" d="M24 4h1M47 37h1M40 48h1M44 50h1" />
<path stroke="rgba(52,78,11,0.611764705882353)" d="M25 4h1" />
<path stroke="rgba(51,71,10,0.09803921568627451)" d="M26 4h1" />
<path stroke="rgba(142,184,71,0.07058823529411765)" d="M28 4h1M31 4h1" />
<path stroke="rgba(137,190,76,0.4588235294117647)" d="M29 4h2" />
<path stroke="rgba(83,119,28,0.611764705882353)" d="M34 4h1" />
<path stroke="rgba(90,126,36,0.9725490196078431)" d="M35 4h1" />
<path stroke="#597d23" d="M36 4h1M36 5h1M44 7h1M15 8h1M17 8h1M36 11h1M23 16h1M23 17h1M23 18h1M23 19h1M23 20h1M12 21h1M37 22h1M37 23h1M47 24h1M44 27h1M19 31h1M21 31h1M15 34h1M38 34h1M36 36h1M36 37h1M36 38h1M23 39h1M36 39h1M23 40h1M36 40h1M43 45h1M23 48h1M23 49h1M23 50h1M23 51h1" />
<path stroke="#4e7215" d="M37 4h1M17 9h1M37 11h1M22 16h1M22 17h1M22 18h1M22 19h1M22 20h1M36 22h1M36 23h1M21 30h1M37 37h1M37 38h1M22 39h1M37 39h1M22 40h1M37 40h1M37 41h1M22 48h1M22 49h1M22 50h1M22 51h1" />
<path stroke="#466711" d="M39 4h1M37 10h1" />
<path stroke="#466810" d="M41 4h1M41 5h1M41 16h1M41 17h1M36 32h1M41 39h1" />
<path stroke="#45680d" d="M44 4h1M15 7h1M32 9h1M32 14h1M32 15h1M16 18h1M19 48h1M17 50h1M15 54h1" />
<path stroke="#4c6f14" d="M45 4h1M17 18h1" />
<path stroke="rgba(80,116,23,0.9568627450980393)" d="M46 4h1" />
<path stroke="rgba(77,113,19,0.8352941176470589)" d="M48 4h1M48 5h1M48 10h1M48 22h1M48 23h1M11 24h1M11 25h1M48 28h1M48 29h1M48 30h1M11 42h1M11 43h1M48 48h1M48 49h1" />
<path stroke="rgba(68,103,12,0.9921568627450981)" d="M14 5h1M14 56h1" />
<path stroke="rgba(69,103,12,0.8313725490196079)" d="M15 5h1M15 56h1" />
<path stroke="#4b6e13" d="M16 5h1M44 19h1M22 37h1M22 38h1M22 42h1M22 43h1M37 48h1M37 49h1" />
<path stroke="rgba(77,113,19,0.984313725490196)" d="M20 5h1M14 12h1M24 54h1" />
<path stroke="rgba(77,112,20,0.7647058823529411)" d="M21 5h1" />
<path stroke="rgba(72,104,14,0.2784313725490196)" d="M22 5h1" />
<path stroke="#334e0c" d="M25 5h1M25 10h1M25 26h1M25 27h1M34 50h1M34 51h1M39 52h1M39 53h1" />
<path stroke="rgba(51,75,15,0.9294117647058824)" d="M26 5h1" />
<path stroke="rgba(108,151,56,0.6274509803921569)" d="M27 5h1" />
<path stroke="rgba(139,191,77,0.9019607843137255)" d="M28 5h1M31 5h1" />
<path stroke="#8abe4d" d="M29 5h2" />
<path stroke="rgba(120,167,57,0.6274509803921569)" d="M32 5h1" />
<path stroke="rgba(79,116,22,0.9294117647058824)" d="M33 5h1" />
<path stroke="#53771a" d="M34 5h1M39 5h1M39 6h1M34 10h1M39 15h1M13 24h1M20 32h1M20 33h1M25 44h1M39 44h1M25 45h1M25 46h1M25 47h1M20 51h1" />
<path stroke="#5a7e24" d="M35 5h1M45 5h1M16 6h1M38 6h1M44 6h2M16 7h3M47 7h1M14 8h1M18 8h2M47 8h1M14 9h2M19 9h1M19 10h1M35 10h1M35 11h1M33 12h1M42 12h2M33 13h1M42 13h2M38 14h1M44 14h2M38 15h1M44 15h2M24 16h1M24 17h1M19 18h1M24 18h1M17 19h3M24 19h1M16 20h4M44 20h1M16 21h1M19 21h1M44 21h2M12 22h1M19 22h1M15 23h1M38 23h1M14 24h2M35 24h1M17 25h1M35 25h1M42 25h2M47 25h1M42 26h4M40 27h1M40 28h1M44 29h2M18 30h2M44 30h2M16 31h3M16 32h2M21 32h1M42 32h2M16 33h2M21 33h1M35 33h1M42 33h2M16 34h2M21 34h1M35 34h1M42 34h2M14 35h4M21 35h1M38 35h1M42 35h2M14 36h1M16 36h2M35 36h1M42 36h2M16 37h2M35 37h1M16 38h1M33 38h3M12 39h1M24 39h1M33 39h3M12 40h1M33 40h1M44 40h1M33 41h1M40 41h1M44 41h2M40 42h1M38 43h1M24 44h1M38 44h1M24 45h1M38 45h1M42 45h1M47 45h1M24 46h1M38 46h1M42 46h2M24 47h1M38 47h1M42 47h2M24 48h1M42 48h2M24 49h1M42 49h2M19 50h1M24 50h1M19 51h1M24 51h1" />
<path stroke="#517518" d="M37 5h1M23 15h1M19 17h1M23 21h1M37 36h1M41 44h1M24 52h1" />
<path stroke="#577b20" d="M38 5h1M33 11h1M16 25h1M21 36h1M38 36h1M17 38h1M23 52h1" />
<path stroke="#567a20" d="M44 5h1M16 19h1M19 49h1" />
<path stroke="#517519" d="M46 5h1M14 10h1M39 16h1M46 22h1M18 24h1M13 25h1M18 25h1M46 30h1M46 31h1M18 33h1M41 33h1M18 34h1M41 34h1M41 45h1" />
<path stroke="#577b21" d="M17 6h1M45 20h1M13 23h1" />
<path stroke="#507418" d="M18 6h1M41 29h1" />
<path stroke="#4e7214" d="M19 6h1M22 9h1M37 12h1M24 14h1M16 22h1M42 31h1M15 37h1M47 47h1M19 52h1M22 52h1" />
<path stroke="#3d5c0c" d="M24 6h1M20 13h1M19 14h1M40 14h1M19 26h1M47 32h1M43 39h1M40 46h1M16 47h1" />
<path stroke="#4e721c" d="M25 6h1" />
<path stroke="#8dc44e" d="M26 6h1" />
<path stroke="#94cd53" d="M27 6h2M31 6h2" />
<path stroke="#8dc34f" d="M29 6h2" />
<path stroke="#8fc64e" d="M33 6h1" />
<path stroke="#618928" d="M34 6h1" />
<path stroke="#50711f" d="M35 6h1" />
<path stroke="#3c5614" d="M36 6h1" />
<path stroke="#577a22" d="M37 6h1M37 7h1M37 14h1M37 15h1" />
<path stroke="#4c7013" d="M40 6h1M40 10h1M40 11h1M21 13h1M43 22h1M44 33h1M39 37h1M43 42h1" />
<path stroke="#43630f" d="M41 6h1" />
<path stroke="#52761a" d="M46 6h1M47 9h1M19 23h1M15 25h1" />
<path stroke="#53771b" d="M47 6h1M20 17h1M40 40h1M39 43h2" />
<path stroke="rgba(89,125,35,0.8352941176470589)" d="M48 6h1" />
<path stroke="rgba(87,123,33,0.3333333333333333)" d="M13 7h1M46 15h1" />
<path stroke="#4d7015" d="M14 7h1M41 35h1" />
<path stroke="#587c21" d="M19 7h1M18 9h1M15 10h1M24 15h1M18 18h1M24 20h1M12 23h1M47 26h1M15 36h1" />
<path stroke="#507417" d="M20 7h1M35 23h1M41 32h1M16 39h1M12 41h1" />
<path stroke="#49720a" d="M25 7h1" />
<path stroke="#5c8c18" d="M26 7h1" />
<path stroke="#81b740" d="M27 7h1" />
<path stroke="#84b749" d="M28 7h1M31 7h1" />
<path stroke="#79a841" d="M29 7h2" />
<path stroke="#7daf41" d="M32 7h1" />
<path stroke="#4d721b" d="M33 7h1" />
<path stroke="#35510b" d="M34 7h1M33 25h1M35 46h1" />
<path stroke="#31480d" d="M35 7h1M36 16h1M35 17h2M22 26h1M38 31h1" />
<path stroke="#344c0f" d="M36 7h1M36 13h1M36 14h1M36 15h1" />
<path stroke="#5a7d24" d="M38 7h1M38 24h1" />
<path stroke="#4c6e17" d="M39 7h1" />
<path stroke="#3b5b0b" d="M40 7h1" />
<path stroke="#4d6e1a" d="M45 7h1M14 34h1M32 40h1M32 41h1" />
<path stroke="#50721c" d="M46 7h1" />
<path stroke="rgba(90,126,36,0.8352941176470589)" d="M48 7h1M11 21h1M11 22h1M48 25h1M48 26h1M11 40h1M48 45h1M48 46h1" />
<path stroke="rgba(90,126,36,0.3333333333333333)" d="M13 8h1M13 9h1M46 14h1M46 41h1M46 42h1" />
<path stroke="#54781c" d="M16 8h1M18 23h1M43 31h1M18 32h1M39 40h1" />
<path stroke="#55791d" d="M20 8h1M20 9h1M20 10h1M20 18h1M20 19h1M20 20h1M20 21h1M20 29h1M20 30h1M20 41h1M39 41h1M41 43h1M20 49h1M20 50h1" />
<path stroke="#476e0a" d="M25 8h1" />
<path stroke="#395809" d="M26 8h1" />
<path stroke="#37530b" d="M27 8h1M22 24h1" />
<path stroke="#4e7614" d="M28 8h1" />
<path stroke="#689430" d="M29 8h1" />
<path stroke="#65902e" d="M30 8h1" />
<path stroke="#45690f" d="M31 8h1" />
<path stroke="#45670d" d="M32 8h1" />
<path stroke="#43640e" d="M33 8h1M26 48h1" />
<path stroke="#344f0a" d="M34 8h1" />
<path stroke="#30470d" d="M35 8h1M26 9h1M26 10h1M35 13h1M35 14h1M35 15h1M35 16h1M26 18h1M21 26h1M26 26h1M33 26h1M21 27h1M26 27h1M33 27h1M26 28h1M33 28h1M26 29h1M33 29h1M26 30h1M33 30h1M26 31h1M33 31h1M26 32h1M33 32h1M38 32h1M26 33h1M33 33h1M24 36h1M24 37h1M24 42h1M33 46h1M33 47h3M33 48h3M33 49h1M33 50h1M33 51h1M33 52h1M33 53h1M40 53h1M42 57h2" />
<path stroke="#334b0f" d="M36 8h1" />
<path stroke="#4b6c1a" d="M37 8h1" />
<path stroke="#3c5b0d" d="M38 8h1" />
<path stroke="#3a580b" d="M42 8h1M44 8h1M23 11h1M41 20h1M22 22h1M22 23h1M23 28h1M37 28h1M37 29h1M15 33h1M32 42h1" />
<path stroke="#42630e" d="M43 8h1M40 20h1M23 35h1M37 50h1" />
<path stroke="#4f711b" d="M46 8h1M46 24h1M46 25h1M33 42h1" />
<path stroke="rgba(89,125,34,0.8352941176470589)" d="M48 8h1" />
<path stroke="#55791e" d="M23 9h1M43 11h1M17 21h1M35 26h1M46 29h1M20 31h1M37 34h1M13 38h1M43 50h1" />
<path stroke="#42630f" d="M24 9h1" />
<path stroke="#35500c" d="M25 9h1M20 26h1M20 27h1M37 30h1" />
<path stroke="#36520b" d="M27 9h1M27 17h1M27 18h1M27 28h1M27 29h1" />
<path stroke="#426807" d="M28 9h1M28 10h2M28 17h1M28 18h2M28 19h2M26 20h4M28 21h2M28 29h1M28 30h2M28 38h2M26 39h1M28 39h2M26 40h4M26 41h4M28 42h2M28 43h2M28 44h2M26 51h1" />
<path stroke="#436908" d="M29 9h1" />
<path stroke="#375802" d="M30 9h1" />
<path stroke="#365701" d="M31 9h1M30 10h2M30 11h2M30 12h2M30 13h2M30 14h2M30 15h2M30 16h2M30 17h2M30 18h2M30 19h1M30 32h2M30 33h2M30 34h2M30 35h2M30 36h2M30 37h2M30 38h2M30 39h1" />
<path stroke="#507319" d="M34 9h1M41 26h1" />
<path stroke="#47651a" d="M35 9h1" />
<path stroke="#334b0e" d="M36 9h1M23 36h1M23 37h1M23 42h1M23 43h1M34 46h1M36 48h1" />
<path stroke="#37550a" d="M37 9h1M37 17h1M23 25h1M23 26h1M38 30h1" />
<path stroke="#39570a" d="M40 9h1M40 12h1M41 18h1M43 21h1M44 34h1M19 35h1M43 41h1M15 50h1" />
<path stroke="#40610e" d="M41 9h1M42 21h1M45 34h1M42 41h1" />
<path stroke="#4b6e12" d="M42 9h1M41 21h1M36 29h1" />
<path stroke="#4d6f19" d="M46 9h1M32 39h1" />
<path stroke="rgba(77,113,20,0.8352941176470589)" d="M48 9h1" />
<path stroke="rgba(78,114,18,0.3333333333333333)" d="M13 10h1M13 11h1M46 16h1M13 28h1M41 50h1M41 51h1M13 52h1M13 53h1" />
<path stroke="#567a1e" d="M18 10h1M18 11h1M18 22h1M13 39h1M39 42h1M41 42h1" />
<path stroke="#4c6f13" d="M22 10h1M22 21h1" />
<path stroke="#3a590b" d="M23 10h1M38 10h1M33 17h1M37 27h1" />
<path stroke="#38560b" d="M27 10h1" />
<path stroke="#476a0f" d="M32 10h1M14 20h1M37 21h1" />
<path stroke="#587c22" d="M36 10h1M14 23h1M14 25h1M22 31h1M22 32h1M22 33h1M36 33h1M22 34h1M22 35h1M33 37h1M45 42h1M47 46h1M23 47h1" />
<path stroke="#40610d" d="M39 10h1" />
<path stroke="rgba(56,85,10,0.8196078431372549)" d="M44 10h1" />
<path stroke="rgba(56,87,9,0.3215686274509804)" d="M45 10h1M14 31h1" />
<path stroke="rgba(77,112,20,0.6666666666666666)" d="M46 10h1M46 11h1M13 42h1M18 53h1M18 54h1" />
<path stroke="#4d7114" d="M15 11h1M24 21h1M47 23h1M47 27h1M47 29h1M19 32h1M18 41h1M22 41h1" />
<path stroke="rgba(77,114,19,0.3764705882352941)" d="M16 11h1M13 27h1" />
<path stroke="rgba(77,112,19,0.8627450980392157)" d="M17 11h1" />
<path stroke="#587c23" d="M19 11h1" />
<path stroke="#4c6f16" d="M20 11h1M32 13h1" />
<path stroke="#4b6f12" d="M22 11h1M22 12h1M23 22h1M23 23h1M46 27h1M22 28h1M36 28h1M22 29h1" />
<path stroke="#37530c" d="M25 11h1" />
<path stroke="#3f5f0c" d="M26 11h1" />
<path stroke="#456b09" d="M27 11h1M27 12h1M27 13h1M27 14h1M27 15h1" />
<path stroke="#467103" d="M28 11h1M28 16h1M28 31h1M26 38h1" />
<path stroke="#446c06" d="M29 11h1M29 31h1" />
<path stroke="#4e7118" d="M32 11h1M32 12h1M32 37h1M32 38h1" />
<path stroke="#53761c" d="M34 11h1M13 22h1M41 28h1M46 44h1M46 45h1M18 50h1M18 51h1" />
<path stroke="#4c7012" d="M38 11h1M41 23h1M42 30h1M18 43h1" />
<path stroke="#476910" d="M39 11h1M41 15h1M40 17h1" />
<path stroke="#4f7315" d="M42 11h1M33 14h1M45 16h1M43 44h1M38 48h1M42 50h1" />
<path stroke="rgba(73,73,0,0.027450980392156862)" d="M44 11h1" />
<path stroke="rgba(78,113,19,0.6823529411764706)" d="M48 11h1" />
<path stroke="rgba(67,98,18,0.7215686274509804)" d="M18 12h1" />
<path stroke="#39570b" d="M19 12h1M23 27h1M19 28h1" />
<path stroke="#3f5f0d" d="M23 12h1M21 22h1M46 33h1M18 39h1M14 51h1" />
<path stroke="#486b0f" d="M25 12h1M25 13h1M40 23h1M43 30h1" />
<path stroke="#477302" d="M28 12h2M28 13h2M28 14h2M28 15h2M29 16h1M28 32h2M28 33h2M27 34h3M26 35h4M26 36h1M29 36h1M26 37h1" />
<path stroke="#49671b" d="M34 12h1M34 13h1" />
<path stroke="#385212" d="M35 12h1" />
<path stroke="#4f711e" d="M36 12h1" />
<path stroke="#476814" d="M41 12h1M18 35h1" />
<path stroke="rgba(64,128,64,0.01568627450980392)" d="M45 12h1" />
<path stroke="rgba(79,115,19,0.47058823529411764)" d="M46 12h1" />
<path stroke="rgba(79,114,18,0.22745098039215686)" d="M47 12h1" />
<path stroke="rgba(75,111,18,0.2784313725490196)" d="M14 13h1M48 21h1" />
<path stroke="rgba(76,113,19,0.7725490196078432)" d="M15 13h1" />
<path stroke="#54771f" d="M37 13h1M19 29h1" />
<path stroke="#507416" d="M38 13h1" />
<path stroke="#436313" d="M41 13h1M18 36h1M18 37h1M41 47h1M41 48h1" />
<path stroke="rgba(88,128,35,0.22745098039215686)" d="M44 13h1" />
<path stroke="rgba(90,126,36,0.7215686274509804)" d="M45 13h1" />
<path stroke="rgba(91,126,35,0.3176470588235294)" d="M46 13h1" />
<path stroke="rgba(56,85,10,0.7725490196078432)" d="M16 14h1M15 48h1" />
<path stroke="rgba(57,86,11,0.2784313725490196)" d="M17 14h1M14 48h1" />
<path stroke="rgba(56,86,10,0.6823529411764706)" d="M18 14h1M45 51h1" />
<path stroke="#496c10" d="M25 14h1M20 43h1M14 54h1" />
<path stroke="#456316" d="M34 14h1" />
<path stroke="#4f7218" d="M39 14h1M13 21h1" />
<path stroke="#436312" d="M41 14h1M18 29h1" />
<path stroke="#54781d" d="M42 14h1M19 41h1M41 41h1M38 42h1M42 44h1" />
<path stroke="#496c12" d="M43 14h1" />
<path stroke="rgba(58,89,10,0.984313725490196)" d="M17 15h1" />
<path stroke="rgba(71,106,16,0.9568627450980393)" d="M18 15h1" />
<path stroke="#4d7116" d="M25 15h1M25 16h1M39 23h1M39 24h1M34 35h1M39 35h1M34 36h1M39 36h1" />
<path stroke="#416011" d="M34 15h1M34 16h1M39 32h1M39 33h1" />
<path stroke="#42640c" d="M42 15h1M16 16h1M36 31h1" />
<path stroke="rgba(57,87,9,0.3333333333333333)" d="M13 16h1M13 17h1M13 32h1M13 33h1M13 50h1M13 51h1" />
<path stroke="rgba(56,86,10,0.8627450980392157)" d="M14 16h1" />
<path stroke="rgba(56,85,11,0.3764705882352941)" d="M15 16h1" />
<path stroke="#43650c" d="M26 16h1M35 18h1M37 19h1M36 30h1" />
<path stroke="#3f620a" d="M27 16h1" />
<path stroke="#41620b" d="M32 16h1" />
<path stroke="#4c6f12" d="M33 16h1M40 34h1M15 39h1M38 50h1M19 54h1" />
<path stroke="#3c5a0e" d="M37 16h1" />
<path stroke="#4e701b" d="M38 16h1" />
<path stroke="#3a590a" d="M43 16h1" />
<path stroke="#52761b" d="M44 16h1" />
<path stroke="rgba(67,104,12,0.403921568627451)" d="M11 17h1" />
<path stroke="rgba(73,109,18,0.054901960784313725)" d="M12 17h1M11 26h1M11 35h1M12 44h1" />
<path stroke="#486816" d="M25 17h1M19 40h1" />
<path stroke="#324a0d" d="M26 17h1M37 31h1M37 32h1" />
<path stroke="#446c05" d="M29 17h1" />
<path stroke="#375607" d="M32 17h1M32 18h1" />
<path stroke="#3e5c0e" d="M34 17h1" />
<path stroke="#3c5b0c" d="M39 17h1" />
<path stroke="#46690e" d="M45 17h1M14 22h1M23 30h1M23 31h1M23 32h1M23 33h1M23 34h1M33 36h1M45 43h1" />
<path stroke="rgba(75,111,18,0.3333333333333333)" d="M46 17h1M13 54h1" />
<path stroke="rgba(68,103,12,0.8352941176470589)" d="M11 18h1M11 19h1M11 36h1M11 37h1" />
<path stroke="rgba(68,103,12,0.9725490196078431)" d="M12 18h1" />
<path stroke="rgba(68,103,16,0.803921568627451)" d="M13 18h1" />
<path stroke="#3b5a0d" d="M14 18h1M45 23h1M37 25h1" />
<path stroke="#425e17" d="M25 18h1M25 19h1M34 33h1" />
<path stroke="#3d5d0b" d="M34 18h1M34 19h1M38 19h1" />
<path stroke="#3a570d" d="M36 18h1" />
<path stroke="#4b6f14" d="M13 19h1M41 24h1M41 25h1M13 36h1M41 36h1M13 37h1M41 37h1" />
<path stroke="#577b22" d="M14 19h1M36 25h1M37 35h1M37 43h1M37 44h1M23 45h1M37 45h1M23 46h1M37 46h1" />
<path stroke="#466712" d="M15 19h1" />
<path stroke="#334c0c" d="M26 19h1M34 49h1" />
<path stroke="#3c5e09" d="M27 19h1" />
<path stroke="#355502" d="M31 19h1M31 39h1" />
<path stroke="#3e5e0b" d="M32 19h1" />
<path stroke="#3b5a0b" d="M33 19h1M44 48h1" />
<path stroke="#38570a" d="M39 19h1" />
<path stroke="rgba(83,119,28,0.8352941176470589)" d="M11 20h1M48 47h1" />
<path stroke="#486b10" d="M12 20h2M39 20h1" />
<path stroke="#486b11" d="M25 20h1M24 23h1M16 27h1M46 32h1M42 38h1M47 49h1" />
<path stroke="#335104" d="M30 20h1M30 40h1" />
<path stroke="#324f05" d="M31 20h1M30 21h2M31 40h1M30 41h2M30 42h2M30 43h3M30 44h2M30 52h2M30 53h1" />
<path stroke="#44660e" d="M32 20h1M32 21h1" />
<path stroke="#46690d" d="M35 20h1M40 37h1M14 40h1" />
<path stroke="rgba(80,116,24,0.5019607843137255)" d="M46 20h1" />
<path stroke="rgba(70,116,23,0.043137254901960784)" d="M47 20h1" />
<path stroke="#567a1f" d="M18 21h1M17 24h1M42 24h1M45 31h1M42 37h1" />
<path stroke="#5e8628" d="M25 21h1" />
<path stroke="#547c1d" d="M26 21h1" />
<path stroke="#436909" d="M27 21h1" />
<path stroke="#4a6d10" d="M39 21h1" />
<path stroke="rgba(81,117,25,0.9921568627450981)" d="M46 21h1" />
<path stroke="rgba(77,113,19,0.8313725490196079)" d="M47 21h1" />
<path stroke="#4e7217" d="M15 22h1M46 46h1" />
<path stroke="#52751b" d="M20 22h1" />
<path stroke="#628a2d" d="M25 22h1" />
<path stroke="#719b3f" d="M26 22h1M26 23h1" />
<path stroke="#719c3d" d="M27 22h1" />
<path stroke="#5b8523" d="M28 22h1" />
<path stroke="#466c0b" d="M29 22h1" />
<path stroke="#355208" d="M30 22h1" />
<path stroke="#436119" d="M31 22h1" />
<path stroke="#446416" d="M32 22h1" />
<path stroke="#476911" d="M33 22h1M41 40h1M17 47h1" />
<path stroke="#53771c" d="M38 22h1M46 26h1M41 27h1M22 30h1M13 40h1M20 40h1" />
<path stroke="#4b6f13" d="M39 22h1" />
<path stroke="#4a6c18" d="M44 22h1" />
<path stroke="#587b22" d="M45 22h1" />
<path stroke="rgba(81,117,24,0.8352941176470589)" d="M11 23h1" />
<path stroke="#456610" d="M20 23h1M20 24h1M39 29h1M39 30h1" />
<path stroke="#5e842b" d="M25 23h1" />
<path stroke="#749f41" d="M27 23h1" />
<path stroke="#79a744" d="M28 23h1M28 24h2M28 46h1M28 47h2" />
<path stroke="#74a13e" d="M29 23h1" />
<path stroke="#53722c" d="M30 23h1" />
<path stroke="#567630" d="M31 23h1M30 24h2M31 46h1M30 47h2" />
<path stroke="#426117" d="M32 23h1" />
<path stroke="#456612" d="M34 23h1" />
<path stroke="#4d7017" d="M46 23h1" />
<path stroke="#4f7316" d="M16 24h1M43 24h1M17 26h1M40 29h1M44 31h1M43 37h1" />
<path stroke="#3c5a0c" d="M23 24h1" />
<path stroke="#355410" d="M25 24h1" />
<path stroke="#4c7025" d="M26 24h1" />
<path stroke="#6b953b" d="M27 24h1" />
<path stroke="#416016" d="M32 24h1" />
<path stroke="#466715" d="M34 24h1M34 25h1M20 35h1M20 36h1M39 46h1M39 47h1" />
<path stroke="#577a20" d="M36 24h1" />
<path stroke="#52751e" d="M37 24h1" />
<path stroke="rgba(84,120,28,0.8352941176470589)" d="M48 24h1" />
<path stroke="#42620f" d="M20 25h1M20 37h1" />
<path stroke="#324b0c" d="M21 25h1" />
<path stroke="#31490d" d="M22 25h1" />
<path stroke="#33520f" d="M25 25h1" />
<path stroke="#304c11" d="M26 25h1" />
<path stroke="#345013" d="M27 25h1" />
<path stroke="#547a2b" d="M28 25h1" />
<path stroke="#73a040" d="M29 25h1" />
<path stroke="#52712d" d="M30 25h1" />
<path stroke="#3d591f" d="M31 25h1" />
<path stroke="#30480e" d="M32 25h1" />
<path stroke="#426111" d="M38 25h1" />
<path stroke="#496c14" d="M39 25h1" />
<path stroke="rgba(76,110,25,0.9176470588235294)" d="M44 25h1" />
<path stroke="#3d5c0e" d="M45 25h1" />
<path stroke="rgba(78,113,18,0.5411764705882353)" d="M12 26h1" />
<path stroke="#4a6c14" d="M18 26h1" />
<path stroke="#304a0f" d="M27 26h1M27 27h1" />
<path stroke="#304f12" d="M28 26h1M28 27h2M28 49h1M28 50h2" />
<path stroke="#325113" d="M29 26h1M29 49h1" />
<path stroke="#263e0f" d="M30 26h1" />
<path stroke="#253c0e" d="M31 26h1M30 27h2" />
<path stroke="#2c430d" d="M32 26h1M32 27h1" />
<path stroke="#3e5a11" d="M34 26h1" />
<path stroke="#577a21" d="M36 26h1M37 42h1" />
<path stroke="#3b590c" d="M37 26h1M36 42h1M36 43h1M36 44h1M36 45h1M22 46h1M36 46h1" />
<path stroke="#4c6d19" d="M39 26h1M39 27h1M34 41h1" />
<path stroke="#55791f" d="M40 26h1M43 27h1" />
<path stroke="#3e5e0c" d="M17 27h1" />
<path stroke="#39540e" d="M22 27h1" />
<path stroke="#3c5910" d="M34 27h1" />
<path stroke="#4d7115" d="M36 27h1" />
<path stroke="#4a6d13" d="M42 27h1M45 28h1" />
<path stroke="#51751b" d="M45 27h1" />
<path stroke="rgba(81,117,25,0.8352941176470589)" d="M48 27h1" />
<path stroke="#4b6e11" d="M14 28h1" />
<path stroke="rgba(70,105,14,0.9725490196078431)" d="M15 28h1" />
<path stroke="#405f11" d="M20 28h1" />
<path stroke="#496b12" d="M21 28h1" />
<path stroke="#344e0c" d="M25 28h1" />
<path stroke="#3c600b" d="M28 28h1" />
<path stroke="#335410" d="M29 28h1" />
<path stroke="#263d0d" d="M30 28h1" />
<path stroke="#294009" d="M31 28h1" />
<path stroke="#2e450b" d="M32 28h1M32 29h1M32 48h1M32 49h1" />
<path stroke="#3c580f" d="M34 28h1" />
<path stroke="#4a6b17" d="M39 28h1" />
<path stroke="#56791f" d="M44 28h1" />
<path stroke="rgba(69,105,12,0.3333333333333333)" d="M13 29h1" />
<path stroke="#3b590b" d="M23 29h1M38 51h1" />
<path stroke="#3f5f0b" d="M24 29h1" />
<path stroke="#38540d" d="M25 29h1M25 30h1M34 30h1M25 31h1M34 31h1M25 32h1M25 33h1" />
<path stroke="#426707" d="M29 29h1" />
<path stroke="#2a4207" d="M30 29h2M30 30h1M31 49h1M30 50h2" />
<path stroke="#39550d" d="M34 29h1" />
<path stroke="#486c0f" d="M35 29h1M19 43h1" />
<path stroke="rgba(73,109,0,0.027450980392156862)" d="M13 30h1M14 46h1" />
<path stroke="rgba(67,102,12,0.43137254901960786)" d="M14 30h1" />
<path stroke="rgba(69,103,12,0.8901960784313725)" d="M15 30h1" />
<path stroke="#456514" d="M16 30h1" />
<path stroke="#557820" d="M17 30h1M34 40h1" />
<path stroke="#36530b" d="M27 30h1" />
<path stroke="#2a4307" d="M31 30h1" />
<path stroke="#2f470b" d="M32 30h1" />
<path stroke="rgba(57,87,10,0.8666666666666667)" d="M15 31h1" />
<path stroke="#385609" d="M27 31h1M27 32h1" />
<path stroke="#2e4905" d="M30 31h1" />
<path stroke="#345302" d="M31 31h1" />
<path stroke="#324c09" d="M32 31h1M32 32h1" />
<path stroke="#426210" d="M39 31h1" />
<path stroke="rgba(73,108,17,0.8352941176470589)" d="M48 31h1" />
<path stroke="#415e17" d="M34 32h1" />
<path stroke="#54771d" d="M35 32h1M12 38h1" />
<path stroke="rgba(56,86,10,0.8352941176470589)" d="M48 32h1M48 33h1M48 34h1M48 35h1M48 36h1M48 51h1M48 52h1M48 53h1M48 54h1" />
<path stroke="#3a5909" d="M27 33h1" />
<path stroke="#344f09" d="M32 33h1" />
<path stroke="#446413" d="M37 33h1M36 35h1" />
<path stroke="#344c0e" d="M38 33h1" />
<path stroke="rgba(61,93,13,0.3764705882352941)" d="M13 34h1" />
<path stroke="#4a6c12" d="M19 34h1" />
<path stroke="#4b6d17" d="M20 34h1" />
<path stroke="#3c5b0b" d="M25 34h1" />
<path stroke="#436a04" d="M26 34h1" />
<path stroke="#3f6208" d="M32 34h1M32 35h1M27 51h1M27 52h1" />
<path stroke="#40610c" d="M33 34h1" />
<path stroke="#456417" d="M34 34h1" />
<path stroke="#567a21" d="M36 34h1" />
<path stroke="#4d7016" d="M39 34h1M22 36h1" />
<path stroke="#3e5e0d" d="M46 34h1" />
<path stroke="rgba(68,103,11,0.5411764705882353)" d="M12 35h1" />
<path stroke="rgba(76,111,22,0.9294117647058824)" d="M13 35h1" />
<path stroke="#354f0d" d="M24 35h1" />
<path stroke="#3e6107" d="M25 35h1M25 36h1M25 37h1" />
<path stroke="#597c23" d="M35 35h1" />
<path stroke="rgba(56,86,10,0.9450980392156862)" d="M46 35h1" />
<path stroke="#467203" d="M27 36h1" />
<path stroke="#477203" d="M28 36h1" />
<path stroke="#45670e" d="M32 36h1" />
<path stroke="rgba(56,86,10,0.6274509803921569)" d="M44 36h1" />
<path stroke="rgba(57,85,7,0.1411764705882353)" d="M45 36h1" />
<path stroke="#527619" d="M14 37h1" />
<path stroke="#456f04" d="M27 37h1M27 38h1" />
<path stroke="#426907" d="M28 37h1" />
<path stroke="#446d05" d="M29 37h1" />
<path stroke="#53771d" d="M34 37h1" />
<path stroke="rgba(56,86,10,0.5215686274509804)" d="M48 37h1" />
<path stroke="rgba(72,107,17,0.8352941176470589)" d="M11 38h1" />
<path stroke="#40600f" d="M18 38h1" />
<path stroke="#456318" d="M23 38h1" />
<path stroke="#4f701e" d="M24 38h1" />
<path stroke="#44670d" d="M25 38h1" />
<path stroke="#486a11" d="M41 38h1" />
<path stroke="rgba(55,85,11,0.27058823529411763)" d="M46 38h1" />
<path stroke="rgba(90,125,35,0.8352941176470589)" d="M11 39h1" />
<path stroke="#4c7113" d="M25 39h1M25 50h1M25 51h1" />
<path stroke="#436907" d="M27 39h1" />
<path stroke="rgba(92,128,36,0.19607843137254902)" d="M44 39h1" />
<path stroke="#557721" d="M24 40h1" />
<path stroke="#466910" d="M25 40h1" />
<path stroke="#567921" d="M35 40h1" />
<path stroke="rgba(90,126,36,0.807843137254902)" d="M45 40h1" />
<path stroke="rgba(92,128,35,0.1411764705882353)" d="M46 40h1" />
<path stroke="rgba(87,123,32,0.8352941176470589)" d="M11 41h1" />
<path stroke="rgba(76,111,18,0.8470588235294118)" d="M13 41h1" />
<path stroke="rgba(67,103,11,0.8745098039215686)" d="M14 41h1" />
<path stroke="#456217" d="M23 41h1" />
<path stroke="#334a0e" d="M24 41h1" />
<path stroke="#3b5b0a" d="M25 41h1M25 42h1" />
<path stroke="#3a590c" d="M35 41h1" />
<path stroke="#496916" d="M36 41h1" />
<path stroke="rgba(73,97,12,0.08235294117647059)" d="M14 42h1M13 46h1M18 58h1" />
<path stroke="rgba(68,103,13,0.7098039215686275)" d="M15 42h1" />
<path stroke="#456a0a" d="M26 42h1" />
<path stroke="#476c0d" d="M27 42h1" />
<path stroke="#4b6d19" d="M34 42h1" />
<path stroke="#507419" d="M44 42h1" />
<path stroke="rgba(77,113,19,0.9725490196078431)" d="M12 43h1" />
<path stroke="rgba(74,109,16,0.6666666666666666)" d="M13 43h1" />
<path stroke="rgba(68,103,12,0.9019607843137255)" d="M14 43h1" />
<path stroke="#3a5412" d="M24 43h1" />
<path stroke="#496b15" d="M25 43h1" />
<path stroke="#496e0f" d="M27 43h1" />
<path stroke="#335005" d="M33 43h1" />
<path stroke="rgba(81,117,26,0.5294117647058824)" d="M46 43h1" />
<path stroke="rgba(73,109,36,0.027450980392156862)" d="M47 43h1" />
<path stroke="rgba(77,114,20,0.403921568627451)" d="M11 44h1" />
<path stroke="#4a6e12" d="M16 44h1" />
<path stroke="#41620c" d="M18 44h1M18 46h1M45 48h1" />
<path stroke="rgba(72,107,15,0.9725490196078431)" d="M20 44h1" />
<path stroke="rgba(77,113,19,0.9921568627450981)" d="M21 44h1" />
<path stroke="#486b12" d="M22 44h1" />
<path stroke="#51721e" d="M23 44h1" />
<path stroke="#4a6f10" d="M27 44h1" />
<path stroke="#37550b" d="M32 44h1" />
<path stroke="#4a6a1f" d="M33 44h1" />
<path stroke="#4c6d21" d="M34 44h1" />
<path stroke="rgba(90,126,36,0.9450980392156862)" d="M47 44h1" />
<path stroke="rgba(90,125,37,0.43137254901960786)" d="M48 44h1" />
<path stroke="rgba(68,104,12,0.9176470588235294)" d="M14 45h1" />
<path stroke="rgba(69,103,12,0.49411764705882355)" d="M15 45h1" />
<path stroke="#39580b" d="M16 45h1" />
<path stroke="#40610b" d="M18 45h1" />
<path stroke="rgba(66,99,11,0.7843137254901961)" d="M20 45h1" />
<path stroke="rgba(60,91,12,0.8666666666666667)" d="M21 45h1" />
<path stroke="#3b5a0c" d="M22 45h1" />
<path stroke="#598021" d="M27 45h1" />
<path stroke="#5e8826" d="M28 45h1" />
<path stroke="#476d0c" d="M29 45h1" />
<path stroke="#355209" d="M30 45h1" />
<path stroke="#44631b" d="M31 45h1" />
<path stroke="#415d1c" d="M32 45h1" />
<path stroke="#4e6d27" d="M33 45h1" />
<path stroke="#4d6e22" d="M34 45h1" />
<path stroke="#51751a" d="M39 45h1M25 48h1" />
<path stroke="#3f600b" d="M20 46h1M20 47h1" />
<path stroke="#5c8323" d="M27 46h1M27 47h1" />
<path stroke="#77a542" d="M29 46h1" />
<path stroke="#55752f" d="M30 46h1" />
<path stroke="#3d5719" d="M32 46h1M32 47h1" />
<path stroke="#4c6f17" d="M41 46h1" />
<path stroke="#476a0e" d="M18 47h1M18 48h1" />
<path stroke="#41610f" d="M22 47h1" />
<path stroke="#344d0e" d="M36 47h1" />
<path stroke="#53761d" d="M37 47h1" />
<path stroke="#476a11" d="M20 48h1" />
<path stroke="#4a6d12" d="M21 48h1" />
<path stroke="#37570d" d="M27 48h1" />
<path stroke="#476b22" d="M28 48h1" />
<path stroke="#6c973b" d="M29 48h1" />
<path stroke="#4e6d29" d="M30 48h1" />
<path stroke="#385314" d="M31 48h1" />
<path stroke="rgba(69,102,19,0.8392156862745098)" d="M39 48h1" />
<path stroke="#4a6d11" d="M46 48h1M16 50h1" />
<path stroke="rgba(55,86,10,0.2901960784313726)" d="M13 49h1M35 52h1" />
<path stroke="#4c7014" d="M18 49h1" />
<path stroke="#486a15" d="M25 49h1" />
<path stroke="#385709" d="M26 49h1M28 52h2M29 53h1" />
<path stroke="#35540c" d="M27 49h1" />
<path stroke="#2b4308" d="M30 49h1" />
<path stroke="#334d0c" d="M35 49h1" />
<path stroke="#334b0d" d="M36 49h1" />
<path stroke="rgba(76,112,19,0.4196078431372549)" d="M39 49h1M39 50h1M25 53h1" />
<path stroke="rgba(55,89,11,0.1803921568627451)" d="M40 49h1M44 51h1" />
<path stroke="rgba(71,103,20,0.7372549019607844)" d="M41 49h1" />
<path stroke="#3d5d0c" d="M46 49h1" />
<path stroke="#406408" d="M26 50h1" />
<path stroke="#38590b" d="M27 50h1" />
<path stroke="#2e460b" d="M32 50h1" />
<path stroke="rgba(60,91,12,0.8352941176470589)" d="M48 50h1" />
<path stroke="#36550b" d="M28 51h1" />
<path stroke="#325110" d="M29 51h1" />
<path stroke="#2c4507" d="M30 51h1" />
<path stroke="#304b06" d="M31 51h1" />
<path stroke="#314a0a" d="M32 51h1M32 52h1" />
<path stroke="rgba(58,89,14,0.5843137254901961)" d="M39 51h1" />
<path stroke="rgba(36,73,0,0.027450980392156862)" d="M40 51h1" />
<path stroke="rgba(68,103,12,0.9372549019607843)" d="M17 52h1" />
<path stroke="rgba(78,114,22,0.9019607843137255)" d="M18 52h1" />
<path stroke="rgba(72,109,14,0.8)" d="M25 52h1" />
<path stroke="rgba(66,103,7,0.9372549019607843)" d="M26 52h1" />
<path stroke="rgba(48,72,13,0.6)" d="M34 52h1" />
<path stroke="rgba(57,85,10,0.8313725490196079)" d="M36 52h1" />
<path stroke="rgba(56,86,10,0.9921568627450981)" d="M37 52h1" />
<path stroke="rgba(48,71,13,0.9176470588235294)" d="M40 52h1" />
<path stroke="rgba(59,87,14,0.6313725490196078)" d="M41 52h1" />
<path stroke="rgba(77,113,19,0.9372549019607843)" d="M42 52h1" />
<path stroke="rgba(69,104,12,0.5686274509803921)" d="M16 53h1" />
<path stroke="rgba(72,104,16,0.12549019607843137)" d="M17 53h1" />
<path stroke="rgba(77,113,19,0.8745098039215686)" d="M21 53h1" />
<path stroke="rgba(78,113,19,0.4235294117647059)" d="M22 53h1" />
<path stroke="rgba(77,113,19,0.9294117647058824)" d="M23 53h1" />
<path stroke="rgba(64,104,8,0.12549019607843137)" d="M26 53h1" />
<path stroke="rgba(62,97,9,0.5686274509803921)" d="M27 53h1" />
<path stroke="rgba(56,87,9,0.9725490196078431)" d="M28 53h1" />
<path stroke="rgba(50,79,5,0.9725490196078431)" d="M31 53h1" />
<path stroke="rgba(49,73,11,0.8352941176470589)" d="M32 53h1" />
<path stroke="rgba(48,70,14,0.5843137254901961)" d="M34 53h1" />
<path stroke="rgba(55,82,9,0.10980392156862745)" d="M36 53h1M46 55h1" />
<path stroke="rgba(56,86,10,0.9254901960784314)" d="M37 53h1" />
<path stroke="rgba(48,70,13,0.6666666666666666)" d="M41 53h1" />
<path stroke="rgba(80,112,16,0.12549019607843137)" d="M42 53h1" />
<path stroke="rgba(77,113,19,0.5686274509803921)" d="M43 53h1" />
<path stroke="rgba(72,108,16,0.6392156862745098)" d="M20 54h1" />
<path stroke="rgba(73,109,24,0.08235294117647059)" d="M22 54h1M22 55h1" />
<path stroke="rgba(77,113,19,0.9176470588235294)" d="M23 54h1" />
<path stroke="rgba(78,114,19,0.3607843137254902)" d="M25 54h1" />
<path stroke="rgba(55,87,10,0.5058823529411764)" d="M29 54h1" />
<path stroke="rgba(49,79,6,0.5058823529411764)" d="M30 54h1" />
<path stroke="rgba(49,85,0,0.08235294117647059)" d="M31 54h1" />
<path stroke="rgba(46,71,15,0.19607843137254902)" d="M33 54h1" />
<path stroke="rgba(47,72,12,0.403921568627451)" d="M34 54h1" />
<path stroke="rgba(53,81,11,0.6549019607843137)" d="M39 54h1" />
<path stroke="rgba(48,71,13,0.8313725490196079)" d="M40 54h1" />
<path stroke="rgba(49,71,14,0.6588235294117647)" d="M41 54h1" />
<path stroke="rgba(56,87,9,0.6470588235294118)" d="M46 54h1" />
<path stroke="rgba(70,106,13,0.6666666666666666)" d="M18 55h1" />
<path stroke="rgba(68,103,12,0.5843137254901961)" d="M20 55h1M20 56h1" />
<path stroke="rgba(78,114,19,0.7215686274509804)" d="M23 55h1" />
<path stroke="rgba(76,115,17,0.23529411764705882)" d="M24 55h1" />
<path stroke="rgba(55,86,10,0.4196078431372549)" d="M39 55h1" />
<path stroke="rgba(46,70,23,0.043137254901960784)" d="M40 55h1" />
<path stroke="rgba(47,72,12,0.3215686274509804)" d="M41 55h1" />
<path stroke="rgba(48,72,16,0.12549019607843137)" d="M42 55h1" />
<path stroke="rgba(56,86,11,0.5686274509803921)" d="M47 55h1" />
<path stroke="rgba(56,86,10,0.803921568627451)" d="M48 55h1" />
<path stroke="rgba(67,103,12,0.6666666666666666)" d="M18 56h1M18 57h1" />
<path stroke="rgba(56,87,10,0.19607843137254902)" d="M37 56h1" />
<path stroke="rgba(57,87,10,0.403921568627451)" d="M39 56h1" />
<path stroke="rgba(48,72,12,0.3333333333333333)" d="M41 56h1M41 57h1" />
<path stroke="rgba(48,71,13,0.984313725490196)" d="M42 56h1M43 58h1" />
<path stroke="rgba(48,70,13,0.7098039215686275)" d="M43 56h1" />
<path stroke="rgba(67,105,11,0.1803921568627451)" d="M20 57h1" />
<path stroke="rgba(46,73,9,0.10980392156862745)" d="M41 58h1" />
<path stroke="rgba(48,71,13,0.7647058823529411)" d="M42 58h1" />
<path stroke="rgba(47,72,13,0.23529411764705882)" d="M43 59h1" />
</svg>